<svg fill="none" height="50" viewBox="0 0 180 50" width="180" xmlns="http://www.w3.org/2000/svg" xmlns:xlink="http://www.w3.org/1999/xlink"><linearGradient id="a" gradientUnits="userSpaceOnUse" x1="90" x2="90" y1="43.175" y2="-.415"><stop offset="0" stop-color="#77d6d3"/><stop offset=".5" stop-color="#e2f4f3"/><stop offset="1" stop-color="#77d6d3"/></linearGradient><linearGradient id="b" gradientUnits="userSpaceOnUse" x1="89.947" x2="89.947" y1="42.611" y2="2.453"><stop offset="0" stop-color="#08082d"/><stop offset="1" stop-color="#353772"/></linearGradient><linearGradient id="c" gradientUnits="userSpaceOnUse" x1="89.7576" x2="89.7576" y1="39.9263" y2="5.0046"><stop offset="0" stop-color="#2d2d51"/><stop offset=".5" stop-color="#466aaf"/><stop offset="1" stop-color="#2d2d51"/></linearGradient><path clip-rule="evenodd" d="m167.5 45h-155l-10-10v-25l10-10h155l10 10v25z" fill="url(#a)" fill-rule="evenodd"/><path d="m166.03 2.5h-152.56l-8.47 9.33v21.34l8.47 9.33h152.56l8.97-9.33v-21.34z" fill="url(#b)"/><path d="m164.84 5h-150.16l-7.18 8.295v18.41l7.18 8.295h150.16l7.66-8.295v-18.41z" fill="url(#c)"/><path d="m74.6109 22.24c.8533.2 1.5133.6133 1.98 1.24.48.6133.72 1.3267.72 2.14 0 1.24-.4134 2.2-1.24 2.88-.8134.6667-1.9867 1-3.52 1h-7.42v-14.16h7.22c1.44 0 2.5733.3133 3.4.94.8266.6267 1.24 1.54 1.24 2.74 0 .8267-.22 1.5267-.66 2.1-.4267.56-1 .9333-1.72 1.12zm-5.04-1.38h1.72c.4 0 .6933-.08.88-.24.2-.16.3-.4067.3-.74 0-.3467-.1-.6-.3-.76-.1867-.1733-.48-.26-.88-.26h-1.72zm2.02 5.08c.4 0 .6933-.0733.88-.22.2-.16.3-.4133.3-.76 0-.68-.3934-1.02-1.18-1.02h-2.02v2zm6.6118-2.08c0-1.1867.2-2.2133.6-3.08.4134-.88.9734-1.5467 1.68-2 .7067-.4667 1.5-.7 2.38-.7.7334 0 1.3667.1533 1.9.46.5334.2933.94.7 1.22 1.22v-1.54h4.42v11.28h-4.42v-1.54c-.28.52-.6866.9333-1.22 1.24-.5333.2933-1.1666.44-1.9.44-.88 0-1.6733-.2267-2.38-.68-.7066-.4667-1.2666-1.1333-1.68-2-.4-.88-.6-1.9133-.6-3.1zm7.78 0c0-.6-.1533-1.0667-.46-1.4-.3066-.3333-.7-.5-1.18-.5s-.8733.1667-1.18.5c-.3066.3333-.46.8-.46 1.4s.1534 1.0667.46 1.4c.3067.3333.7.5 1.18.5s.8734-.1667 1.18-.5c.3067-.3333.46-.8.46-1.4zm10.8538-9.16v14.8h-4.44v-14.8zm6.4455 0v14.8h-4.4402v-14.8zm7.025 14.94c-1.067 0-2.013-.1733-2.84-.52-.813-.3467-1.46-.8267-1.94-1.44s-.753-1.3067-.82-2.08h4.26c.053.3333.193.58.42.74.24.16.54.24.9.24.227 0 .407-.0467.54-.14.133-.1067.2-.2333.2-.38 0-.2533-.14-.4333-.42-.54s-.753-.2267-1.42-.36c-.813-.16-1.487-.3333-2.02-.52-.52-.1867-.98-.5067-1.38-.96-.387-.4533-.58-1.08-.58-1.88 0-.6933.18-1.32.54-1.88.373-.5733.92-1.02 1.64-1.34.72-.3333 1.593-.5 2.62-.5 1.52 0 2.707.3733 3.56 1.12.867.7467 1.387 1.72 1.56 2.92h-3.94c-.067-.3067-.207-.54-.42-.7-.213-.1733-.5-.26-.86-.26-.227 0-.4.0467-.52.14-.12.08-.18.2067-.18.38 0 .2267.14.4.42.52.28.1067.727.22 1.34.34.813.16 1.5.34 2.06.54s1.047.5467 1.46 1.04c.413.48.62 1.1467.62 2 0 .6667-.193 1.2667-.58 1.8s-.947.9533-1.68 1.26c-.72.3067-1.567.46-2.54.46z" fill="#fff"/></svg>