<svg fill="none" height="134" viewBox="0 0 134 134" width="134" xmlns="http://www.w3.org/2000/svg" xmlns:xlink="http://www.w3.org/1999/xlink"><linearGradient id="a" gradientUnits="userSpaceOnUse" x1="66.9999" x2="66.9999" y1="127.933" y2="-1.24"><stop offset="0" stop-color="#77d6d3"/><stop offset=".5" stop-color="#e2f4f3"/><stop offset="1" stop-color="#77d6d3"/></linearGradient><linearGradient id="b" gradientUnits="userSpaceOnUse" x1="66.7313" x2="66.7313" y1="129.749" y2="3.38298"><stop offset="0" stop-color="#08082d"/><stop offset="1" stop-color="#353772"/></linearGradient><linearGradient id="c" gradientUnits="userSpaceOnUse" x1="66.9999" x2="66.9999" y1="126.48" y2="6.85339"><stop offset="0" stop-color="#2d2d51"/><stop offset=".5" stop-color="#466aaf"/><stop offset="1" stop-color="#2d2d51"/></linearGradient><path clip-rule="evenodd" d="m119 133.333h-104.0001l-14.666648-14.666v-104.0003l14.666648-14.6667h104.0001l14.667 14.6667v104.0003z" fill="url(#a)" fill-rule="evenodd"/><path d="m116.78 3.33337h-99.5602l-6.78 6.77333-6.7733 6.78v99.5603l6.7733 6.78 6.78 6.773h99.5602l6.78-6.773 6.773-6.78v-99.5603l-6.773-6.78z" fill="url(#b)"/><path d="m114.02 6.85339h-94.0335l-6.4 6.40001-6.39998 6.4v94.0336l6.39998 6.393 6.4 6.4h94.0335l6.393-6.4 6.4-6.393v-94.0336l-6.4-6.4z" fill="url(#c)"/></svg>