<svg fill="none" height="110" viewBox="0 0 124 110" width="124" xmlns="http://www.w3.org/2000/svg" xmlns:xlink="http://www.w3.org/1999/xlink"><filter id="a" color-interpolation-filters="sRGB" filterUnits="userSpaceOnUse" height="109.256" width="123.944" x=".014404" y=".038818"><feFlood flood-opacity="0" result="BackgroundImageFix"/><feColorMatrix in="SourceAlpha" result="hardAlpha" type="matrix" values="0 0 0 0 0 0 0 0 0 0 0 0 0 0 0 0 0 0 127 0"/><feOffset dy="4"/><feGaussianBlur stdDeviation="12"/><feComposite in2="hardAlpha" operator="out"/><feColorMatrix type="matrix" values="0 0 0 0 0 0 0 0 0 0 0 0 0 0 0 0 0 0 1 0"/><feBlend in2="BackgroundImageFix" mode="normal" result="effect1_dropShadow_12_677"/><feBlend in="SourceGraphic" in2="effect1_dropShadow_12_677" mode="normal" result="shape"/></filter><linearGradient id="b" gradientUnits="userSpaceOnUse" x1="62" x2="62" y1="79.3332" y2="17.9999"><stop offset="0" stop-color="#e5f7f6"/><stop offset="1" stop-color="#e2f4f3"/></linearGradient><g filter="url(#a)" opacity=".7"><path clip-rule="evenodd" d="m26 44.3599 12.0933-11.94c1.2802-1.2569 3.0026-1.9611 4.7967-1.9611 1.794 0 3.5164.7042 4.7966 1.9611l9.0134 8.9133 19.6133-19.3333c1.2802-1.2569 3.0026-1.9611 4.7967-1.9611 1.794 0 3.5164.7042 4.7966 1.9611l12.0934 11.8933c.6208.6193 1.1134 1.355 1.4495 2.1649.3361.81.509 1.6782.509 2.5551s-.1729 1.7452-.509 2.5552c-.3361.8099-.8287 1.5456-1.4495 2.1648l-36.52 36c-1.2802 1.2569-3.0026 1.9611-4.7967 1.9611s-3.5165-.7042-4.7967-1.9611l-25.8866-25.5133c-.6287-.6169-1.1281-1.3529-1.4691-2.1651-.3409-.8121-.5165-1.6841-.5165-2.5649s.1756-1.7528.5165-2.5649c.341-.8122.8404-1.5482 1.4691-2.1651z" fill="#000" fill-rule="evenodd"/></g><path clip-rule="evenodd" d="m27.2533 42.3599 11.68-11.94c.6005-.6201 1.3195-1.1133 2.1143-1.45.7948-.3368 1.6492-.5103 2.5124-.5103s1.7176.1735 2.5124.5103c.7948.3367 1.5138.8299 2.1143 1.45l8.7 8.9133 18.92-19.3333c.601-.6203 1.3206-1.1136 2.1159-1.4504.7954-.3369 1.6503-.5104 2.5141-.5104.8637 0 1.7187.1735 2.514.5104.7954.3368 1.5149.8301 2.116 1.4504l11.68 11.9333c1.2315 1.2679 1.9204 2.9658 1.9204 4.7334 0 1.7675-.6889 3.4654-1.9204 4.7333l-35.2334 36c-.601.6203-1.3205 1.1136-2.1159 1.4504-.7954.3369-1.6503.5104-2.5141.5104-.8637 0-1.7187-.1735-2.514-.5104-.7954-.3368-1.5149-.8301-2.116-1.4504l-25-25.58c-1.2311-1.2667-1.9198-2.9636-1.9198-4.73s.6887-3.4633 1.9198-4.73z" fill="url(#b)" fill-rule="evenodd"/></svg>