<svg fill="none" height="50" viewBox="0 0 180 50" width="180" xmlns="http://www.w3.org/2000/svg" xmlns:xlink="http://www.w3.org/1999/xlink"><linearGradient id="a" gradientUnits="userSpaceOnUse" x1="90" x2="90" y1="43.175" y2="-.415"><stop offset="0" stop-color="#77d6d3"/><stop offset=".5" stop-color="#e2f4f3"/><stop offset="1" stop-color="#77d6d3"/></linearGradient><linearGradient id="b" gradientUnits="userSpaceOnUse" x1="89.947" x2="89.947" y1="42.611" y2="2.453"><stop offset="0" stop-color="#08082d"/><stop offset="1" stop-color="#353772"/></linearGradient><linearGradient id="c" gradientUnits="userSpaceOnUse" x1="89.7576" x2="89.7576" y1="39.9263" y2="5.0046"><stop offset="0" stop-color="#2d2d51"/><stop offset=".5" stop-color="#466aaf"/><stop offset="1" stop-color="#2d2d51"/></linearGradient><path clip-rule="evenodd" d="m167.5 45h-155l-10-10v-25l10-10h155l10 10v25z" fill="url(#a)" fill-rule="evenodd"/><path d="m166.03 2.5h-152.56l-8.47 9.33v21.34l8.47 9.33h152.56l8.97-9.33v-21.34z" fill="url(#b)"/><path d="m164.84 5h-150.16l-7.18 8.295v18.41l7.18 8.295h150.16l7.66-8.295v-18.41z" fill="url(#c)"/><path d="m62.8345 26.14h4.28v3.36h-8.72v-14.16h4.44zm16.5972-2.38c0 .3067-.02.6-.06.88h-7.14c.0667.9733.4734 1.46 1.22 1.46.48 0 .8267-.22 1.04-.66h4.7c-.16.8-.5 1.52-1.02 2.16-.5066.6267-1.1533 1.1267-1.94 1.5-.7733.36-1.6266.54-2.56.54-1.12 0-2.12-.2333-3-.7-.8666-.4667-1.5466-1.1333-2.04-2-.48-.88-.72-1.9067-.72-3.08s.24-2.1933.72-3.06c.4934-.88 1.1734-1.5533 2.04-2.02.88-.4667 1.88-.7 3-.7s2.1134.2333 2.98.7c.88.4533 1.56 1.1067 2.04 1.96.4934.8533.74 1.86.74 3.02zm-4.5-1.06c0-.3733-.12-.6533-.36-.84-.24-.2-.54-.3-.9-.3-.7866 0-1.2466.38-1.38 1.14zm11.6242 2.58 1.8-7.06h4.72l-3.76 11.28h-5.54l-3.76-11.28h4.72zm18.6181-1.52c0 .3067-.02.6-.06.88h-7.1401c.0667.9733.4733 1.46 1.22 1.46.48 0 .8271-.22 1.0401-.66h4.7c-.16.8-.5 1.52-1.02 2.16-.507.6267-1.153 1.1267-1.94 1.5-.773.36-1.627.54-2.5601.54-1.12 0-2.12-.2333-3-.7-.8667-.4667-1.5467-1.1333-2.04-2-.48-.88-.72-1.9067-.72-3.08s.24-2.1933.72-3.06c.4933-.88 1.1733-1.5533 2.04-2.02.88-.4667 1.88-.7 3-.7 1.1201 0 2.1131.2333 2.9801.7.88.4533 1.56 1.1067 2.04 1.96.493.8533.74 1.86.74 3.02zm-4.5-1.06c0-.3733-.12-.6533-.36-.84-.24-.2-.5401-.3-.9001-.3-.7867 0-1.2467.38-1.38 1.14zm10.344-8v14.8h-4.44v-14.8zm7.025 14.94c-1.066 0-2.013-.1733-2.84-.52-.813-.3467-1.46-.8267-1.94-1.44s-.753-1.3067-.82-2.08h4.26c.054.3333.194.58.42.74.24.16.54.24.9.24.227 0 .407-.0467.54-.14.134-.1067.2-.2333.2-.38 0-.2533-.14-.4333-.42-.54s-.753-.2267-1.42-.36c-.813-.16-1.486-.3333-2.02-.52-.52-.1867-.98-.5067-1.38-.96-.386-.4533-.58-1.08-.58-1.88 0-.6933.18-1.32.54-1.88.374-.5733.92-1.02 1.64-1.34.72-.3333 1.594-.5 2.62-.5 1.52 0 2.707.3733 3.56 1.12.867.7467 1.387 1.72 1.56 2.92h-3.94c-.066-.3067-.206-.54-.42-.7-.213-.1733-.5-.26-.86-.26-.226 0-.4.0467-.52.14-.12.08-.18.2067-.18.38 0 .2267.14.4.42.52.28.1067.727.22 1.34.34.814.16 1.5.34 2.06.54s1.047.5467 1.46 1.04c.414.48.62 1.1467.62 2 0 .6667-.193 1.2667-.58 1.8-.386.5333-.946.9533-1.68 1.26-.72.3067-1.566.46-2.54.46z" fill="#fff"/></svg>