<svg fill="none" height="200" viewBox="0 0 200 200" width="200" xmlns="http://www.w3.org/2000/svg" xmlns:xlink="http://www.w3.org/1999/xlink"><linearGradient id="a"><stop offset="0" stop-color="#e5f7f6"/><stop offset="1" stop-color="#e2f4f3"/></linearGradient><linearGradient id="b" gradientUnits="userSpaceOnUse" x1="100.333" x2="100.333" xlink:href="#a" y1="109.02" y2="62"/><linearGradient id="c" gradientUnits="userSpaceOnUse" x1="90.9601" x2="90.9601" xlink:href="#a" y1="135.333" y2="119.267"/><clipPath id="d"><path d="m70 62h60.6667v75.3333h-60.6667z"/></clipPath><circle cx="100" cy="100" fill="#585858" r="100"/><g clip-path="url(#d)" clip-rule="evenodd" fill-rule="evenodd"><g fill="#000" opacity=".7"><path d="m83.1733 64.38c.4895-.2491 1.0308-.3793 1.58-.38h20.3867c12.653 0 25.527 4.5733 25.527 23.2867 0 22.1803-18.1 21.5003-31.3337 21.5003-.8133 0-1.2866.213-1.5333.713-.2106.443-.5392.819-.9497 1.087-.4104.268-.8869.418-1.377.433h-10.28c-.3761.007-.7499-.061-1.0992-.201s-.667-.348-.9343-.613c-.2672-.265-.4787-.581-.6218-.929s-.215-.721-.2113-1.097c.1133-3.86.6666-7.393 3.1333-10.4267 2.1111-2.5733 5.7267-3.86 10.8467-3.86h10.2603c3.053 0 6.34-.54 6.34-5.26s-3.334-5.1533-6.34-5.1533h-33.6937c-.4962.0145-.9872-.1044-1.4218-.3444s-.7968-.5922-1.0488-1.0199c-.252-.4278-.3846-.9153-.3839-1.4117.0007-.4965.1346-.9836.3879-1.4107l6.4066-10.44c.7116-1.1364 1.7186-2.0581 2.9134-2.6666z" opacity=".7"/><path d="m80.8933 128.553 2-5.593c.1851-.498.5182-.927.9544-1.229.4362-.303.9546-.465 1.4856-.464h10.5933c.5342-.004 1.0566.156 1.4966.459s.7763.734.9634 1.234l2.0004 5.593c.196.536.196 1.125 0 1.66l-2.0004 5.44c-.1881.498-.5241.925-.9628 1.226-.4387.3-.9589.459-1.4905.454h-10.6c-.5317.005-1.0519-.154-1.4905-.454-.4387-.301-.7747-.728-.9628-1.226l-2-5.44c-.1892-.538-.1845-1.125.0133-1.66z" opacity=".7"/></g><path d="m83.74 62.38c.4706-.2486.9945-.3791 1.5267-.38h19.7133c12.24 0 24.667 4.5733 24.667 23.2867 0 22.1803-17.507 21.5003-30.2936 21.5003-.7867 0-1.24.213-1.4867.713-.1919.44-.505.817-.9027 1.086-.3978.269-.8639.42-1.344.434h-9.9266c-.3702.001-.7367-.072-1.0781-.215-.3413-.144-.6504-.354-.909-.619s-.4614-.579-.5965-.923c-.135-.345-.1996-.713-.1898-1.083.1067-3.86.6267-7.3933 3.0334-10.4267 2.04-2.5733 5.5355-3.86 10.4866-3.86h9.927c2.946 0 6.126-.54 6.126-5.26s-3.213-5.1533-6.126-5.1533h-32.5936c-.4889-.0011-.9689-.1314-1.3912-.3778-.4223-.2463-.772-.5999-1.0136-1.0249-.2417-.4251-.3666-.9064-.3623-1.3953.0044-.4889.1379-.968.3871-1.3887l6.1933-10.44c.6814-1.1277 1.656-2.0493 2.82-2.6666z" fill="url(#b)"/><path d="m81.5334 126.553 1.9333-5.593c.1717-.495.4932-.923.9197-1.227.4265-.303.9369-.466 1.4603-.466h10.22c.5237-.001 1.0346.161 1.4613.465s.7479.733.9187 1.228l1.9333 5.593c.19.537.19 1.123 0 1.66l-1.9199 5.44c-.1731.493-.4953.919-.9218 1.22s-.9362.462-1.4582.46h-10.2467c-.5209.001-1.0291-.161-1.4543-.462s-.7463-.726-.919-1.218l-1.92-5.44c-.1856-.537-.1879-1.121-.0067-1.66z" fill="url(#c)"/></g></svg>